<svg width="1em" height="1em" viewBox="0 0 48 48" fill="none" xmlns="http://www.w3.org/2000/svg">
<circle cx="24" cy="24" r="24" fill="#FCBE2C"/>
<path d="M25.3917 12H15.1969V35.133H25.3917C28.4595 35.133 31.4016 33.9143 33.5706 31.7453C35.7398 29.5761 36.9585 26.6342 36.9585 23.5665C36.9585 20.4989 35.7398 17.557 33.5706 15.3877C31.4016 13.2186 28.4595 12 25.3917 12ZM25.3603 32.6687H17.8413V14.4605H25.3603C30.2426 14.4605 34.2148 18.5459 34.2148 23.5665C34.2148 28.587 30.2426 32.6687 25.3603 32.6687Z" fill="white"/>
<path d="M39.1572 22.1864V19.5447H12V22.1864H39.1572Z" fill="white"/>
<path d="M39.1572 27.706V25.0642H12V27.706H39.1572Z" fill="white"/>
</svg>
