<svg width="1em" height="1em" viewBox="0 0 40 40" fill="none" xmlns="http://www.w3.org/2000/svg">
<path d="M39 20C39 30.5311 30.5311 39 20 39C9.46888 39 1 30.5311 1 20C1 9.46888 9.46888 1 20 1C30.5311 1 39 9.46888 39 20Z" fill="#2775CA" stroke="white" stroke-width="2"/>
<path d="M25.8333 23C25.8333 20.0834 24.0833 19.0834 20.5833 18.6668C18.0833 18.3334 17.5833 17.6668 17.5833 16.5C17.5833 15.3332 18.4167 14.5834 20.0833 14.5834C21.5833 14.5834 22.4167 15.0834 22.8333 16.3334C22.9167 16.5834 23.1667 16.75 23.4167 16.75H24.7499C25.0833 16.75 25.3333 16.5 25.3333 16.1668V16.0834C24.9999 14.25 23.4999 12.8334 21.5833 12.6668V10.6668C21.5833 10.3334 21.3333 10.0834 20.9167 10H19.6667C19.3333 10 19.0833 10.25 18.9999 10.6668V12.5834C16.4999 12.9168 14.9167 14.5834 14.9167 16.6668C14.9167 19.4168 16.5833 20.5 20.0833 20.9168C22.4167 21.3334 23.1667 21.8334 23.1667 23.1668C23.1667 24.5002 21.9999 25.4168 20.4167 25.4168C18.2499 25.4168 17.4999 24.5 17.2499 23.25C17.1667 22.9168 16.9167 22.75 16.6667 22.75H15.2499C14.9167 22.75 14.6667 23 14.6667 23.3334V23.4168C14.9999 25.5 16.3333 27 19.0833 27.4168V29.4168C19.0833 29.75 19.3333 30 19.7499 30.0834H20.9999C21.3333 30.0834 21.5833 29.8334 21.6667 29.4168V27.4168C24.1667 27 25.8333 25.25 25.8333 23V23Z" fill="white"/>
<path d="M15.7499 31.9167C9.24992 29.5835 5.91652 22.3335 8.33332 15.9167C9.58332 12.4166 12.3333 9.75004 15.7499 8.50004C16.0833 8.33344 16.2499 8.08344 16.2499 7.66664V6.50004C16.2499 6.16664 16.0833 5.91664 15.7499 5.83344C15.6665 5.83344 15.4999 5.83343 15.4165 5.91663C7.49992 8.41664 3.16651 16.8335 5.66652 24.7501C7.16652 29.4167 10.7499 33.0001 15.4165 34.5001C15.7499 34.6667 16.0833 34.5001 16.1665 34.1667C16.2499 34.0835 16.2499 34.0001 16.2499 33.8335V32.6667C16.2499 32.4167 15.9999 32.0835 15.7499 31.9167ZM24.5833 5.91663C24.2499 5.75003 23.9165 5.91663 23.8333 6.25004C23.7499 6.33344 23.7499 6.41664 23.7499 6.58344V7.75004C23.7499 8.08344 23.9999 8.41664 24.2499 8.58344C30.7499 10.9166 34.0833 18.1667 31.6665 24.5835C30.4165 28.0835 27.6665 30.7501 24.2499 32.0001C23.9165 32.1667 23.7499 32.4167 23.7499 32.8335V34.0001C23.7499 34.3335 23.9165 34.5835 24.2499 34.6667C24.3333 34.6667 24.4999 34.6667 24.5833 34.5835C32.4999 32.0835 36.8333 23.6667 34.3333 15.7501C32.8333 11 29.1665 7.41664 24.5833 5.91663V5.91663Z" fill="white"/>
</svg>
