<svg width="1em" height="1em" viewBox="0 0 48 48" fill="none" xmlns="http://www.w3.org/2000/svg">
<circle cx="24" cy="24" r="24" fill="#22B093"/>
<path fill-rule="evenodd" clip-rule="evenodd" d="M26.4404 24.902C26.3039 24.9122 25.5995 24.9578 24.0275 24.9578C22.7767 24.9578 21.889 24.9173 21.5748 24.902C16.743 24.6712 13.1364 23.761 13.1364 22.6643C13.1364 21.5679 16.743 20.6601 21.5748 20.4255V23.9918C21.8901 24.0171 22.7954 24.0755 24.0449 24.0755C25.5458 24.0755 26.2967 24.0071 26.4322 23.993V20.4281C31.2535 20.6613 34.852 21.5691 34.852 22.6643C34.852 23.7598 31.2546 24.6688 26.4322 24.9008L26.4404 24.902ZM26.4404 20.0592V16.8669H33.1689V12H14.8498V16.8669H21.5772V20.058C16.1089 20.3305 12 21.5069 12 22.9154C12 24.324 16.1124 25.4991 21.5772 25.7729V36H26.4393V25.769C31.8948 25.4965 36 24.3214 36 22.9142C36 21.5069 31.8983 20.3317 26.4393 20.058L26.4404 20.0592Z" fill="white"/>
</svg>
