<svg width="1em" height="1em" viewBox="0 0 40 40" fill="none" xmlns="http://www.w3.org/2000/svg">
<rect x="1" y="1" width="38" height="38" rx="19" fill="#FF4925" stroke="white" stroke-width="2"/>
<path d="M16.4479 10.6663C10.9178 12.8062 10.4116 18.2836 8.82475 20.8427C7.22042 23.4326 3.54486 24.8602 4.04666 26.1793C4.54993 27.4985 8.22985 26.0826 11.1418 26.9239C14.0188 27.755 18.0333 31.4867 23.5634 29.3467C24.9022 28.8305 26.1139 28.0275 27.1146 26.9933C28.1154 25.959 28.8813 24.7181 29.3596 23.3564C29.3835 23.2902 29.392 23.2193 29.3844 23.1493C29.3769 23.0792 29.3536 23.0118 29.3163 22.9523C29.2789 22.8927 29.2285 22.8426 29.169 22.8057C29.1095 22.7687 29.0423 22.746 28.9727 22.7393C28.8816 22.7303 28.7899 22.7493 28.7097 22.7938C28.6295 22.8382 28.5645 22.9061 28.5233 22.9885C27.8137 24.4073 26.6975 25.5786 25.3194 26.3505C23.9413 27.1225 22.3649 27.4594 20.7945 27.3177C19.2241 27.176 17.7322 26.5622 16.5121 25.5559C15.292 24.5495 14.4001 23.197 13.9519 21.6737C15.8417 20.7904 17.7614 19.9735 19.7074 19.2245C21.6176 18.4819 23.5523 17.8048 25.5081 17.1945C26.676 16.834 27.748 16.532 28.7153 16.2858L28.9233 16.2345C29.0687 16.1979 29.2185 16.277 29.2724 16.4177L29.2738 16.4206C29.3058 16.5042 29.3334 16.5892 29.3625 16.6742C29.5545 17.2195 29.6971 17.7706 29.7931 18.3217C29.8024 18.3777 29.8248 18.4307 29.8585 18.4763C29.8921 18.5219 29.936 18.5588 29.9866 18.584C30.0371 18.6092 30.0929 18.6219 30.1492 18.6212C30.2056 18.6204 30.261 18.6062 30.3109 18.5796C31.0464 18.1841 31.7701 17.7667 32.481 17.3279C34.8984 15.827 36.2395 14.5548 35.9646 13.8337C35.6882 13.1111 33.8483 13.07 31.0541 13.5845C29.8803 13.8048 28.7157 14.0727 27.5633 14.3877C26.6717 14.6252 25.7306 14.8992 24.7503 15.2056C22.7956 15.8185 20.8615 16.496 18.9511 17.237C17.1543 17.9296 15.3789 18.6775 13.6276 19.4796C13.6202 18.1857 13.9272 16.9096 14.5218 15.7628C15.1163 14.6159 15.9803 13.6331 17.0384 12.9001C18.0965 12.167 19.3165 11.706 20.5921 11.5573C21.8676 11.4086 23.1598 11.5767 24.3561 12.047C24.5306 12.1159 24.7284 12.0675 24.855 11.9297C24.9022 11.8776 24.937 11.8152 24.9567 11.7474C24.9763 11.6796 24.9803 11.6082 24.9684 11.5386C24.9565 11.4691 24.9289 11.4031 24.8878 11.3459C24.8467 11.2887 24.7932 11.2418 24.7314 11.2086C23.4717 10.5198 22.0788 10.1146 20.6487 10.021C19.2186 9.92738 17.7854 10.1475 16.4479 10.6663V10.6663Z" fill="white"/>
</svg>
